# Alias OBJ Model File
# Exported from SketchUp, (c) 2000-2012 Trimble Navigation Limited
# File units = inches

mtllib OverheadGarageShelves.mtl

g Mesh1 HorizLongLeft1 Group2 Group1 Model

usemtl Color_D04
v 251.524 84 -100.5
vt 1.5 120
vn 0 1 -0
v 251.524 84 -102
vt 0 120
v 155.524 84 -102
vt 0 24
v 155.524 84 -100.5
vt 1.5 24
f 1/1/1 2/2/1 3/3/1 4/4/1 

vt -1.5 3.5
vn 1 0 -6.07153e-14
v 251.524 80.5 -100.5
vt -1.5 0
v 251.524 80.5 -102
vt 0 0
vt 0 3.5
f 1/5/2 5/6/2 6/7/2 2/8/2 

vt 120 0
vn 6.07153e-14 0 1
vt 120 3.5
vt 24 3.5
v 155.524 80.5 -100.5
vt 24 0
f 5/9/3 1/10/3 4/11/3 7/12/3 

vt 1.5 0
vn -1 0 6.07153e-14
vt 1.5 3.5
v 155.524 80.5 -102
f 7/13/4 4/14/4 3/8/4 8/7/4 

vt -120 3.5
vn -6.07153e-14 0 -1
vt -120 0
vt -24 0
vt -24 3.5
f 2/15/5 6/16/5 8/17/5 3/18/5 

vn 0 -1 -0
vt -1.5 120
vt -1.5 24
f 6/2/6 5/19/6 7/20/6 8/3/6 

g Mesh2 HorizLongLeft2 Group2 Group1 Model

v 251.524 84 -78
v 251.524 84 -79.5
v 155.524 84 -79.5
v 155.524 84 -78
f 9/1/1 10/2/1 11/3/1 12/4/1 

v 251.524 80.5 -78
v 251.524 80.5 -79.5
f 9/5/2 13/6/2 14/7/2 10/8/2 

v 155.524 80.5 -78
f 13/9/3 9/10/3 12/11/3 15/12/3 

v 155.524 80.5 -79.5
f 15/13/4 12/14/4 11/8/4 16/7/4 

f 10/15/5 14/16/5 16/17/5 11/18/5 

f 14/2/6 13/19/6 15/20/6 16/3/6 

g Mesh3 HorizShort1 Group2 Group1 Model

v 202.774 84 -100.5
v 204.274 84 -100.5
v 204.274 80.5 -100.5
v 202.774 80.5 -100.5
f 17/8/5 18/5/5 19/6/5 20/7/5 

vt 0 1.5
v 202.774 84 -79.5
vt 21 0
v 204.274 84 -79.5
vt 21 1.5
f 18/21/1 17/7/1 21/22/1 22/23/1 

v 202.774 80.5 -79.5
vt 21 3.5
f 17/8/4 20/7/4 23/22/4 21/24/4 

v 204.274 80.5 -79.5
vt -21 1.5
vt -21 0
f 20/7/6 19/21/6 24/25/6 23/26/6 

vt -21 3.5
f 19/7/2 18/8/2 22/27/2 24/26/2 

f 22/14/3 21/8/3 23/7/3 24/13/3 

g Mesh4 HorizShort2 Group2 Group1 Model

v 157.024 84 -100.5
v 157.024 80.5 -100.5
f 4/8/5 25/5/5 26/6/5 7/7/5 

v 155.524 84 -79.5
v 157.024 84 -79.5
f 25/21/1 4/7/1 27/22/1 28/23/1 

v 155.524 80.5 -79.5
f 4/8/4 7/7/4 29/22/4 27/24/4 

v 157.024 80.5 -79.5
f 7/7/6 26/21/6 30/25/6 29/26/6 

f 26/7/2 25/8/2 28/27/2 30/26/2 

f 28/14/3 27/8/3 29/7/3 30/13/3 

g Mesh5 HorizShort3 Group2 Group1 Model

v 250.024 84 -100.5
v 250.024 80.5 -100.5
f 31/8/5 1/5/5 5/6/5 32/7/5 

v 250.024 84 -79.5
f 1/21/1 31/7/1 33/22/1 10/23/1 

v 250.024 80.5 -79.5
f 31/8/4 32/7/4 34/22/4 33/24/4 

f 32/7/6 5/21/6 14/25/6 34/26/6 

f 5/7/2 1/8/2 10/27/2 14/26/2 

f 10/14/3 33/8/3 34/7/3 14/13/3 

g Mesh6 HorizShort4 Group2 Group1 Model

v 178.774 84 -100.5
v 180.274 84 -100.5
v 180.274 80.5 -100.5
v 178.774 80.5 -100.5
f 35/8/5 36/5/5 37/6/5 38/7/5 

v 178.774 84 -79.5
v 180.274 84 -79.5
f 36/21/1 35/7/1 39/22/1 40/23/1 

v 178.774 80.5 -79.5
f 35/8/4 38/7/4 41/22/4 39/24/4 

v 180.274 80.5 -79.5
f 38/7/6 37/21/6 42/25/6 41/26/6 

f 37/7/2 36/8/2 40/27/2 42/26/2 

f 40/14/3 39/8/3 41/7/3 42/13/3 

g Mesh7 HorizShort5 Group2 Group1 Model

v 226.774 84 -100.5
v 228.274 84 -100.5
v 228.274 80.5 -100.5
v 226.774 80.5 -100.5
f 43/8/5 44/5/5 45/6/5 46/7/5 

v 226.774 84 -79.5
v 228.274 84 -79.5
f 44/21/1 43/7/1 47/22/1 48/23/1 

v 226.774 80.5 -79.5
f 43/8/4 46/7/4 49/22/4 47/24/4 

v 228.274 80.5 -79.5
f 46/7/6 45/21/6 50/25/6 49/26/6 

f 45/7/2 44/8/2 48/27/2 50/26/2 

f 48/14/3 47/8/3 49/7/3 50/13/3 

g Mesh8 HorizLongLeft3 Group3 Group1 Model

v 13.0241 84 -108
v 11.5241 84 -108
v 11.5241 84 -12
v 13.0241 84 -12
f 51/1/1 52/2/1 53/3/1 54/4/1 

vn 0 0 -1
v 13.0241 80.5 -108
v 11.5241 80.5 -108
f 51/5/7 55/6/7 56/7/7 52/8/7 

vn 1 0 -0
v 13.0241 80.5 -12
f 55/9/8 51/10/8 54/11/8 57/12/8 

vn 0 0 1
v 11.5241 80.5 -12
f 57/13/9 54/14/9 53/8/9 58/7/9 

vn -1 0 -0
f 52/15/10 56/16/10 58/17/10 53/18/10 

f 56/2/6 55/19/6 57/20/6 58/3/6 

g Mesh9 HorizLongLeft4 Group3 Group1 Model

v 35.5241 84 -108
v 34.0241 84 -108
v 34.0241 84 -12
v 35.5241 84 -12
f 59/1/1 60/2/1 61/3/1 62/4/1 

v 35.5241 80.5 -108
v 34.0241 80.5 -108
f 59/5/7 63/6/7 64/7/7 60/8/7 

v 35.5241 80.5 -12
f 63/9/8 59/10/8 62/11/8 65/12/8 

v 34.0241 80.5 -12
f 65/13/9 62/14/9 61/8/9 66/7/9 

f 60/15/10 64/16/10 66/17/10 61/18/10 

f 64/2/6 63/19/6 65/20/6 66/3/6 

g Mesh10 HorizShort6 Group3 Group1 Model

v 13.0241 84 -59.25
v 13.0241 84 -60.75
v 13.0241 80.5 -60.75
v 13.0241 80.5 -59.25
f 67/8/10 68/5/10 69/6/10 70/7/10 

v 34.0241 84 -59.25
v 34.0241 84 -60.75
f 68/21/1 67/7/1 71/22/1 72/23/1 

v 34.0241 80.5 -59.25
f 67/8/9 70/7/9 73/22/9 71/24/9 

v 34.0241 80.5 -60.75
f 70/7/6 69/21/6 74/25/6 73/26/6 

f 69/7/7 68/8/7 72/27/7 74/26/7 

f 72/14/8 71/8/8 73/7/8 74/13/8 

g Mesh11 HorizShort7 Group3 Group1 Model

v 13.0241 84 -13.5
v 13.0241 80.5 -13.5
f 54/8/10 75/5/10 76/6/10 57/7/10 

v 34.0241 84 -13.5
f 75/21/1 54/7/1 61/22/1 77/23/1 

f 54/8/9 57/7/9 66/22/9 61/24/9 

v 34.0241 80.5 -13.5
f 57/7/6 76/21/6 78/25/6 66/26/6 

f 76/7/7 75/8/7 77/27/7 78/26/7 

f 77/14/8 61/8/8 66/7/8 78/13/8 

g Mesh12 HorizShort8 Group3 Group1 Model

v 13.0241 84 -106.5
v 13.0241 80.5 -106.5
f 79/8/10 51/5/10 55/6/10 80/7/10 

v 34.0241 84 -106.5
f 51/21/1 79/7/1 81/22/1 60/23/1 

v 34.0241 80.5 -106.5
f 79/8/9 80/7/9 82/22/9 81/24/9 

f 80/7/6 55/21/6 64/25/6 82/26/6 

f 55/7/7 51/8/7 60/27/7 64/26/7 

f 60/14/8 81/8/8 82/7/8 64/13/8 

g Mesh13 HorizShort9 Group3 Group1 Model

v 13.0241 84 -35.25
v 13.0241 84 -36.75
v 13.0241 80.5 -36.75
v 13.0241 80.5 -35.25
f 83/8/10 84/5/10 85/6/10 86/7/10 

v 34.0241 84 -35.25
v 34.0241 84 -36.75
f 84/21/1 83/7/1 87/22/1 88/23/1 

v 34.0241 80.5 -35.25
f 83/8/9 86/7/9 89/22/9 87/24/9 

v 34.0241 80.5 -36.75
f 86/7/6 85/21/6 90/25/6 89/26/6 

f 85/7/7 84/8/7 88/27/7 90/26/7 

f 88/14/8 87/8/8 89/7/8 90/13/8 

g Mesh14 HorizShort10 Group3 Group1 Model

v 13.0241 84 -83.25
v 13.0241 84 -84.75
v 13.0241 80.5 -84.75
v 13.0241 80.5 -83.25
f 91/8/10 92/5/10 93/6/10 94/7/10 

v 34.0241 84 -83.25
v 34.0241 84 -84.75
f 92/21/1 91/7/1 95/22/1 96/23/1 

v 34.0241 80.5 -83.25
f 91/8/9 94/7/9 97/22/9 95/24/9 

v 34.0241 80.5 -84.75
f 94/7/6 93/21/6 98/25/6 97/26/6 

f 93/7/7 92/8/7 96/27/7 98/26/7 

f 96/14/8 95/8/8 97/7/8 98/13/8 

g Mesh15 HorizLongLeft5 Group1 Model

v 251.524 125 -81.5
vn 1.49011e-08 -1.26826e-22 -1
v 251.524 123.5 -81.5
v 155.524 123.5 -81.5
v 155.524 125 -81.5
f 99/1/11 100/2/11 101/3/11 102/4/11 

vn 1 -8.51122e-15 1.49011e-08
v 251.524 125 -78
v 251.524 123.5 -78
f 99/5/12 103/6/12 104/7/12 100/8/12 

vn 8.51122e-15 1 3.0011e-31
v 155.524 125 -78
f 103/9/13 99/10/13 102/11/13 105/12/13 

vn -1 8.51122e-15 -1.49011e-08
v 155.524 123.5 -78
f 105/13/14 102/14/14 101/8/14 106/7/14 

vn -8.51122e-15 -1 -3.0011e-31
f 100/15/15 104/16/15 106/17/15 101/18/15 

vn -1.49011e-08 1.26826e-22 1
f 104/2/16 103/19/16 105/20/16 106/3/16 

g Mesh16 HorizShort11 Group1 Model

v 154.024 84 -132
vn 1 0 3.54938e-13
v 154.024 84 -130.5
v 154.024 80.5 -130.5
v 154.024 80.5 -132
f 107/8/17 108/5/17 109/6/17 110/7/17 

v 133.024 84 -132
v 133.024 84 -130.5
f 108/21/1 107/7/1 111/22/1 112/23/1 

vn 3.54938e-13 0 -1
v 133.024 80.5 -132
f 107/8/18 110/7/18 113/22/18 111/24/18 

vn -0 -1 -0
v 133.024 80.5 -130.5
f 110/7/19 109/21/19 114/25/19 113/26/19 

vn -3.54938e-13 0 1
f 109/7/20 108/8/20 112/27/20 114/26/20 

vn -1 0 -3.54938e-13
f 112/14/21 111/8/21 113/7/21 114/13/21 

g Mesh17 HorizShort12 Group1 Model

v 130.024 84 -130.5
vn 1.37668e-14 0 -1
v 131.524 84 -130.5
v 131.524 80.5 -130.5
v 130.024 80.5 -130.5
f 115/8/22 116/5/22 117/6/22 118/7/22 

v 130.024 84 -109.5
v 131.524 84 -109.5
f 116/21/1 115/7/1 119/22/1 120/23/1 

vn -1 0 -1.37668e-14
v 130.024 80.5 -109.5
f 115/8/23 118/7/23 121/22/23 119/24/23 

vn 0 -1 0
v 131.524 80.5 -109.5
f 118/7/24 117/21/24 122/25/24 121/26/24 

vn 1 0 1.37668e-14
f 117/7/25 116/8/25 120/27/25 122/26/25 

vn -1.37668e-14 0 1
f 120/14/26 119/8/26 121/7/26 122/13/26 

g Mesh18 HorizShort13 Group1 Model

v 11.5241 84 -130.5
v 13.0241 84 -130.5
v 13.0241 80.5 -130.5
v 11.5241 80.5 -130.5
f 123/8/22 124/5/22 125/6/22 126/7/22 

v 11.5241 84 -109.5
v 13.0241 84 -109.5
f 124/21/1 123/7/1 127/22/1 128/23/1 

v 11.5241 80.5 -109.5
f 123/8/23 126/7/23 129/22/23 127/24/23 

v 13.0241 80.5 -109.5
f 126/7/24 125/21/24 130/25/24 129/26/24 

f 125/7/25 124/8/25 128/27/25 130/26/25 

f 128/14/26 127/8/26 129/7/26 130/13/26 

g Mesh19 HorizLongOutsideCorner1 Group1 Model

v 131.524 84 -132
vt -2.84217e-14 3.5
v 133.024 84 -132
v 133.024 80.5 -132
v 131.524 80.5 -132
vt -2.84217e-14 0
f 131/28/22 132/5/22 133/6/22 134/29/22 

vt 4.5 1.5
vt 4.5 2.84217e-14
v 131.524 84 -102
vt 34.5 8.52651e-14
v 133.024 84 -102
vt 34.5 1.5
f 132/30/1 131/31/1 135/32/1 136/33/1 

vt 4.5 3.5
vt 4.5 0
v 131.524 80.5 -102
vt 34.5 0
vt 34.5 3.5
f 131/34/23 134/35/23 137/36/23 135/37/23 

vt -4.5 2.84217e-14
vt -4.5 1.5
v 133.024 80.5 -102
vt -34.5 1.5
vt -34.5 8.52651e-14
f 134/38/24 133/39/24 138/40/24 137/41/24 

vt -4.5 0
vt -4.5 3.5
vt -34.5 3.5
vt -34.5 0
f 133/42/25 132/43/25 136/44/25 138/45/25 

vt 8.52651e-14 3.5
vt 8.52651e-14 0
f 136/14/26 135/46/26 137/47/26 138/13/26 

g Mesh20 HorizShort14 Group1 Model

v 107.524 84 -130.5
v 109.024 84 -130.5
v 109.024 80.5 -130.5
v 107.524 80.5 -130.5
f 139/8/22 140/5/22 141/6/22 142/7/22 

v 107.524 84 -109.5
v 109.024 84 -109.5
f 140/21/1 139/7/1 143/22/1 144/23/1 

v 107.524 80.5 -109.5
f 139/8/23 142/7/23 145/22/23 143/24/23 

v 109.024 80.5 -109.5
f 142/7/24 141/21/24 146/25/24 145/26/24 

f 141/7/25 140/8/25 144/27/25 146/26/25 

f 144/14/26 143/8/26 145/7/26 146/13/26 

g Mesh21 CornerShelfSheet2_sheet1 Group1 Model

usemtl FrontColor
v 155.524 84.5 -108
vt 9.10952e-17 6
vn 1.8219e-16 1 4.55476e-17
v 131.524 84.5 -108
vt 24 6
v 131.524 84.5 -102
vt 24 12
v 155.524 84.5 -78
vt 7.58653e-07 36
f 147/48/27 148/49/27 149/50/27 150/51/27 

v 155.524 84 -108
vn -2.10737e-08 0 -1
v 131.524 84 -108
vt 24 0.5
vt 0 0.5
f 151/7/28 152/12/28 148/52/28 147/53/28 

vt 0 6
vn -1.18424e-16 -1 -3.55271e-16
v 155.524 84 -78
vt -7.58653e-07 36
v 131.524 84 -102
vt -24 12
vt -24 6
f 151/54/29 153/55/29 154/56/29 152/57/29 

vt -6 0.5
vn 1 4.68021e-39 -9.4739e-15
vt -36 0.5
vt -36 -1.42109e-14
vt -6 -5.91776e-46
f 147/58/30 150/59/30 153/60/30 151/61/30 

vt -8.48528 -1.66729e-24
vn -0.707107 6.54972e-26 0.707107
vt 25.4558 -1.42109e-14
vt 25.4558 0.5
vt -8.48528 0.5
f 154/62/31 153/63/31 150/64/31 149/65/31 

vt 12 3.9221e-32
vn -1 -1.63421e-33 -1.13687e-13
vt 12 0.5
vt 6 0.5
vt 6 3.9221e-32
f 154/66/32 149/67/32 148/68/32 152/69/32 

g Mesh22 LeftShelf_sheet1 Group1 Model

v 155.524 84.5 -102
v 155.524 84.5 -78
v 251.524 84.5 -78
vt 24 96
v 251.524 84.5 -102
vt 0 96
f 155/7/1 156/12/1 157/70/1 158/71/1 

v 155.524 84 -102
vn -1 0 4.00576e-14
v 155.524 84 -78
f 159/7/33 160/12/33 156/52/33 155/53/33 

v 251.524 84 -102
v 251.524 84 -78
vt -24 96
f 160/17/6 159/7/6 161/71/6 162/72/6 

vt -96 0
vn -4.00576e-14 0 -1
vt -96 0.5
f 161/73/34 159/7/34 155/53/34 158/74/34 

vn 1 0 -4.00576e-14
vt -24 0.5
f 162/17/35 161/7/35 158/53/35 157/75/35 

vn 4.00576e-14 0 1
vt 96 0
vt 96 0.5
f 160/7/36 162/76/36 157/77/36 156/53/36 

g Mesh23 HorizLongBack1 Group1 Model

usemtl Color_D04
v 131.524 84 -108
vt 1.5 144
vt 1.42109e-14 144
v 11.5241 84 -109.5
f 163/78/1 120/79/1 164/3/1 52/4/1 

vn 1 0 -1.50879e-13
v 131.524 80.5 -108
vt -1.42109e-14 0
vt -1.42109e-14 3.5
f 163/5/37 165/6/37 122/80/37 120/81/37 

vt 144 0
vn 1.50879e-13 0 1
vt 144 3.5
f 165/82/38 163/83/38 52/11/38 56/12/38 

vn -1 0 1.50879e-13
v 11.5241 80.5 -109.5
f 56/13/39 52/14/39 164/8/39 166/7/39 

vt -144 3.5
vn -1.50879e-13 0 -1
vt -144 0
f 120/84/40 122/85/40 166/17/40 164/18/40 

vt -1.42109e-14 144
vt -1.5 144
f 122/86/6 165/87/6 56/20/6 166/3/6 

g Mesh24 HorizLongLeft6 Group1 Model

v 132.524 112 -108
v 132.524 110.5 -108
v 36.5241 110.5 -108
v 36.5241 112 -108
f 167/1/11 168/2/11 169/3/11 170/4/11 

v 132.524 112 -104.5
v 132.524 110.5 -104.5
f 167/5/12 171/6/12 172/7/12 168/8/12 

v 36.5241 112 -104.5
f 171/9/13 167/10/13 170/11/13 173/12/13 

v 36.5241 110.5 -104.5
f 173/13/14 170/14/14 169/8/14 174/7/14 

f 168/15/15 172/16/15 174/17/15 169/18/15 

f 172/2/16 171/19/16 173/20/16 174/3/16 

g Mesh25 HorizLongLeft7 Group1 Model

v 33.0241 112 -108
vn -1 8.51122e-15 -0
v 33.0241 110.5 -108
v 33.0241 110.5 -12
v 33.0241 112 -12
f 175/1/41 176/2/41 177/3/41 178/4/41 

v 36.5241 112 -108
v 36.5241 110.5 -108
f 175/5/7 179/6/7 180/7/7 176/8/7 

vn 8.51122e-15 1 -0
v 36.5241 112 -12
f 179/9/42 175/10/42 178/11/42 181/12/42 

v 36.5241 110.5 -12
f 181/13/9 178/14/9 177/8/9 182/7/9 

vn -8.51122e-15 -1 -0
f 176/15/43 180/16/43 182/17/43 177/18/43 

vn 1 -8.51122e-15 -0
f 180/2/44 179/19/44 181/20/44 182/3/44 

g Mesh26 CornerShelfSheet1_sheet1 Group1 Model

usemtl FrontColor
v 107.524 84.5 -132
v 107.524 84.5 -108
v 155.524 84.5 -108
vt 24 48
v 155.524 84.5 -132
vt -1.13687e-13 48
f 183/7/1 184/12/1 185/88/1 186/89/1 

v 107.524 84 -132
v 107.524 84 -108
f 187/7/33 188/12/33 184/52/33 183/53/33 

v 155.524 84 -132
vt 1.13687e-13 48
v 155.524 84 -108
vt -24 48
f 188/17/6 187/7/6 189/90/6 190/91/6 

vt -48 0
vt -48 0.5
f 189/92/34 187/7/34 183/53/34 186/93/34 

vt 1.13687e-13 0
vt 1.13687e-13 0.5
f 190/17/35 189/94/35 186/95/35 185/75/35 

vt 48 0
vt 48 0.5
f 188/7/36 190/96/36 185/97/36 184/53/36 

g Mesh27 LeftShelf_sheet2 Group1 Model

v 11.5241 84.5 -12
v 35.5241 84.5 -12
v 35.5241 84.5 -108
v 11.5241 84.5 -108
f 191/7/1 192/12/1 193/70/1 194/71/1 

f 53/7/9 62/12/9 192/52/9 191/53/9 

f 62/17/6 53/7/6 52/71/6 59/72/6 

f 52/73/10 53/7/10 191/53/10 194/74/10 

f 59/17/7 52/7/7 194/53/7 193/75/7 

f 62/7/8 59/76/8 193/77/8 192/53/8 

g Mesh28 HorizLongInsideCorner1 Group1 Model

usemtl Color_D04
v 154.024 84 -132
v 155.524 84 -132
v 155.524 80.5 -132
v 154.024 80.5 -132
f 195/28/22 196/5/22 197/6/22 198/29/22 

vt 4.5 4.43453e-14
vn -4.5496e-15 1 -3.74696e-16
v 154.024 84 -81.6213
vt 54.8787 2.71719e-13
v 155.524 84 -80.1213
vt 56.3787 1.5
f 195/98/45 199/99/45 200/100/45 196/30/45 

vt 4.5 1.29058e-44
vn -1 1.34805e-30 -9.57831e-15
v 154.024 80.5 -81.6213
vt 54.8787 1.42109e-14
vt 54.8787 3.5
f 198/101/46 201/102/46 199/103/46 195/34/46 

vn 3.10136e-15 -1 1.69826e-16
v 155.524 80.5 -80.1213
vt -56.3787 1.5
vt -54.8787 2.55795e-13
f 198/38/47 197/39/47 202/104/47 201/105/47 

vt -56.3787 3.5
vn 1 4.83779e-30 -1.7187e-14
vt -56.3787 2.84217e-14
vt -4.5 -7.25669e-30
f 200/106/48 202/107/48 197/108/48 196/43/48 

vt 40.9264 3.5
vn -0.707107 1.04914e-28 0.707107
vt 38.8051 3.5
vt 38.8051 1.42109e-14
vt 40.9264 2.84217e-14
f 200/109/49 199/110/49 201/111/49 202/112/49 

g Mesh29 HorizAngleCorner1 Group1 Model

vt -1.5 -1.84587e-27
vn -0.707107 -1.14841e-14 0.707107
v 155.524 80.5 -78
vt 32.4411 -2.38873e-27
v 155.524 84 -78
vt 32.4411 3.5
f 137/113/50 203/114/50 204/115/50 135/5/50 

vt -32.4411 3.06954e-12
vt 1.5 2.84217e-14
v 133.645 80.5 -102
vt 1.00684e-11 1.5
v 155.524 80.5 -80.1213
vt -30.9411 1.5
f 203/116/6 137/117/6 205/118/6 206/119/6 

vt 1.06066 3.5
vn -3.38962e-12 0 -1
v 133.645 84 -102
vt -1.06066 3.5
vt -1.06066 0
vt 1.06066 0
f 135/120/51 207/121/51 205/122/51 137/123/51 

vt -1.5 4.5001e-14
vn -3.18784e-15 1 3.51122e-15
vt 32.4411 3.00086e-12
v 155.524 84 -80.1213
vt 30.9411 1.5
vt -1.00692e-11 1.5
f 135/124/52 204/125/52 208/126/52 207/127/52 

vt -20.818 3.5
vn 1 2.43615e-14 -5.35683e-14
vt -22.9393 3.5
vt -22.9393 -5.58836e-13
vt -20.818 -5.58836e-13
f 208/128/53 204/129/53 203/130/53 206/131/53 

vt -30.9411 3.5
vn 0.707107 1.14841e-14 -0.707107
vt -30.9411 -1.72262e-14
vt 1.00641e-11 -1.72262e-14
vt 1.00641e-11 3.5
f 208/132/54 206/133/54 205/134/54 207/135/54 

g Mesh30 HorizShort15 Group1 Model

v 154.024 84 -108
v 154.024 84 -106.5
v 154.024 80.5 -106.5
v 154.024 80.5 -108
f 209/8/17 210/5/17 211/6/17 212/7/17 

v 133.024 84 -108
v 133.024 84 -106.5
f 210/21/1 209/7/1 213/22/1 214/23/1 

v 133.024 80.5 -108
f 209/8/18 212/7/18 215/22/18 213/24/18 

v 133.024 80.5 -106.5
f 212/7/19 211/21/19 216/25/19 215/26/19 

f 211/7/20 210/8/20 214/27/20 216/26/20 

f 214/14/21 213/8/21 215/7/21 216/13/21 

g Mesh31 HorizShort16 Group1 Model

v 154.024 84 -103.5
v 154.024 84 -102
v 154.024 80.5 -102
v 154.024 80.5 -103.5
f 217/8/17 218/5/17 219/6/17 220/7/17 

v 133.024 84 -103.5
v 133.024 84 -102
f 218/21/1 217/7/1 221/22/1 222/23/1 

v 133.024 80.5 -103.5
f 217/8/18 220/7/18 223/22/18 221/24/18 

v 133.024 80.5 -102
f 220/7/19 219/21/19 224/25/19 223/26/19 

f 219/7/20 218/8/20 222/27/20 224/26/20 

f 222/14/21 221/8/21 223/7/21 224/13/21 

g Mesh32 HorizShort17 Group1 Model

v 82.2741 84 -130.5
v 83.7741 84 -130.5
v 83.7741 80.5 -130.5
v 82.2741 80.5 -130.5
f 225/8/22 226/5/22 227/6/22 228/7/22 

v 82.2741 84 -109.5
v 83.7741 84 -109.5
f 226/21/1 225/7/1 229/22/1 230/23/1 

v 82.2741 80.5 -109.5
f 225/8/23 228/7/23 231/22/23 229/24/23 

v 83.7741 80.5 -109.5
f 228/7/24 227/21/24 232/25/24 231/26/24 

f 227/7/25 226/8/25 230/27/25 232/26/25 

f 230/14/26 229/8/26 231/7/26 232/13/26 

g Mesh33 HorizShort18 Group1 Model

v 58.7741 84 -130.5
v 60.2741 84 -130.5
v 60.2741 80.5 -130.5
v 58.7741 80.5 -130.5
f 233/8/22 234/5/22 235/6/22 236/7/22 

v 58.7741 84 -109.5
v 60.2741 84 -109.5
f 234/21/1 233/7/1 237/22/1 238/23/1 

v 58.7741 80.5 -109.5
f 233/8/23 236/7/23 239/22/23 237/24/23 

v 60.2741 80.5 -109.5
f 236/7/24 235/21/24 240/25/24 239/26/24 

f 235/7/25 234/8/25 238/27/25 240/26/25 

f 238/14/26 237/8/26 239/7/26 240/13/26 

g Mesh34 HorizShort19 Group1 Model

v 154.024 84 -109.5
v 154.024 84 -108
v 154.024 80.5 -108
v 154.024 80.5 -109.5
f 241/8/17 242/5/17 243/6/17 244/7/17 

v 133.024 84 -109.5
v 133.024 84 -108
f 242/21/1 241/7/1 245/22/1 246/23/1 

v 133.024 80.5 -109.5
f 241/8/18 244/7/18 247/22/18 245/24/18 

v 133.024 80.5 -108
f 244/7/19 243/21/19 248/25/19 247/26/19 

f 243/7/20 242/8/20 246/27/20 248/26/20 

f 246/14/21 245/8/21 247/7/21 248/13/21 

g Mesh35 HorizLongBack2 Group1 Model

v 131.524 84 -132
v 11.5241 84 -132
f 116/78/1 249/79/1 250/3/1 123/4/1 

v 131.524 80.5 -132
f 116/5/37 117/6/37 251/80/37 249/81/37 

f 117/82/38 116/83/38 123/11/38 126/12/38 

v 11.5241 80.5 -132
f 126/13/39 123/14/39 250/8/39 252/7/39 

f 249/84/40 251/85/40 252/17/40 250/18/40 

f 251/86/6 117/87/6 126/20/6 252/3/6 

g Mesh36 HorizShort20 Group1 Model

v 106.024 84 -130.5
v 106.024 80.5 -130.5
f 253/8/22 139/5/22 142/6/22 254/7/22 

v 106.024 84 -109.5
v 107.524 84 -109.5
f 139/21/1 253/7/1 255/22/1 256/23/1 

v 106.024 80.5 -109.5
f 253/8/23 254/7/23 257/22/23 255/24/23 

v 107.524 80.5 -109.5
f 254/7/24 142/21/24 258/25/24 257/26/24 

f 142/7/25 139/8/25 256/27/25 258/26/25 

f 256/14/26 255/8/26 257/7/26 258/13/26 

g Mesh37 HorizShort21 Group1 Model

v 35.2814 84 -130.5
v 36.7814 84 -130.5
v 36.7814 80.5 -130.5
v 35.2814 80.5 -130.5
f 259/8/22 260/5/22 261/6/22 262/7/22 

v 35.2814 84 -109.5
v 36.7814 84 -109.5
f 260/21/1 259/7/1 263/22/1 264/23/1 

v 35.2814 80.5 -109.5
f 259/8/23 262/7/23 265/22/23 263/24/23 

v 36.7814 80.5 -109.5
f 262/7/24 261/21/24 266/25/24 265/26/24 

f 261/7/25 260/8/25 264/27/25 266/26/25 

f 264/14/26 263/8/26 265/7/26 266/13/26 

g Mesh38 LeftShelf_sheet3 Group1 Model

usemtl FrontColor
v 11.5241 84.5 -132
v 107.524 84.5 -108
v 107.524 84.5 -132
f 267/7/1 194/12/1 268/70/1 269/71/1 

v 11.5241 84 -132
f 270/7/33 52/12/33 194/52/33 267/53/33 

v 107.524 84 -132
v 107.524 84 -108
f 52/17/6 270/7/6 271/71/6 272/72/6 

f 271/73/34 270/7/34 267/53/34 269/74/34 

f 272/17/35 271/7/35 269/53/35 268/75/35 

f 52/7/36 272/76/36 268/77/36 194/53/36 

g Mesh39 ShopDividerWall1 Group4 Model

v 11.5241 128.375 -0
vt 11.5241 0
v 11.5241 128.375 -132
vt 11.5241 132
v 7.5241 128.375 -132
vt 7.5241 132
v 7.5241 128.375 -0
vt 7.5241 0
f 273/136/1 274/137/1 275/138/1 276/139/1 

v 11.5241 0 -0
v 11.5241 0 -130
vt 130 0
v 11.5241 4 -130
vt 130 4
v 11.5241 4 -132
vt 132 4
vt 132 128.375
vt 0 128.375
f 277/7/8 278/140/8 279/141/8 280/142/8 274/143/8 273/144/8 

vt -11.5241 130
vt -11.5241 0
v 7.5241 0 -0
vt -7.5241 0
v 7.5241 0 -130
vt -7.5241 130
f 278/145/6 277/146/6 281/147/6 282/148/6 

vt 11.5241 128.375
vt 7.5241 128.375
f 281/139/9 277/136/9 273/149/9 276/150/9 

vt -130 0
vt -132 128.375
v 7.5241 4 -132
vt -132 4
v 7.5241 4 -130
vt -130 4
f 282/151/10 281/7/10 276/144/10 275/152/10 283/153/10 284/154/10 

vt -11.5241 128.375
vt -11.5241 4
vt -7.5241 4
vt -7.5241 128.375
f 274/155/7 280/156/7 283/157/7 275/158/7 

vt -7.5241 132
vt -11.5241 132
f 279/145/6 284/148/6 283/159/6 280/160/6 

f 282/147/7 284/157/7 279/156/7 278/146/7 

g Mesh40 ShopDividerWall1 Group4 Model

v 0 0 -130
vt -130 -1.6985e-45
vn -1 -6.01668e-16 2.17152e-32
v 0 4.69192e-15 -0
vt 0 4.69192e-15
v 0 128.375 -0
v 0 128.375 -132
v 0 4 -132
v 0 4 -130
f 285/161/55 286/162/55 287/144/55 288/152/55 289/153/55 290/154/55 

v 3.8991 4.69192e-15 -0
vt -3.8991 -4.23349e-32
vn 6.01668e-16 -1 1.80459e-17
vt -2.82298e-30 -8.46698e-32
vt 0 130
v 3.8991 4.69192e-15 -130
vt -3.8991 130
f 291/163/56 286/164/56 285/165/56 292/166/56 

vn 0 1.80459e-17 1
vt 3.8991 4.69192e-15
v 3.8991 128.375 -0
vt 3.8991 128.375
f 286/162/57 291/167/57 293/168/57 287/144/57 

vt 0 2.34596e-15
vn 1 6.01668e-16 -0
vt 130 2.34596e-15
v 3.8991 4 -130
v 3.8991 4 -132
v 3.8991 128.375 -132
f 291/169/58 292/170/58 294/141/58 295/142/58 296/143/58 293/144/58 

vt 0 4
vt -3.8991 4
vt -3.8991 4.69192e-15
f 285/7/7 290/171/7 294/172/7 292/173/7 

vt 0 132
vt -3.8991 132
f 294/166/6 290/165/6 289/174/6 295/175/6 

vt -3.8991 128.375
f 296/176/7 295/172/7 289/171/7 288/144/7 

vt 7.72391e-14 -2.31664e-15
vn -6.01668e-16 1 -1.80459e-17
vt 3.8991 -2.31664e-15
vt 3.8991 132
vt 7.72391e-14 132
f 287/177/59 293/178/59 296/179/59 288/180/59 

g Mesh41 GarageWalls1 Group4 Model

v 155.524 4 -132
vt -384 438
v 57.5241 4 -132
vt -286 438
v 57.5241 4 -138
vt -286 444
v 155.524 4 -138
vt -384 444
f 297/181/6 298/182/6 299/183/6 300/184/6 

vt 228.476 124.375
vn 2.07272e-16 3.46433e-16 1
vt 228.476 1.51738e-13
v 25.5241 4 -132
vt 254 1.51738e-13
v 25.5241 84 -132
vt 254 80
v 57.5241 84 -132
vt 286 80
vt 286 1.51738e-13
vt 384 1.51738e-13
v 155.524 112.625 -132
vt 384 108.625
v 11.5241 112.625 -132
vt 240 108.625
vt 240 124.375
f 288/185/60 289/186/60 301/187/60 302/188/60 303/189/60 298/190/60 297/191/60 304/192/60 305/193/60 274/194/60 

vt -438 0
vt -438 124.375
v 0 128.375 -138
vt -444 124.375
v 0 4 -138
vt -444 2.84217e-14
f 289/195/10 288/196/10 306/197/10 307/198/10 

vt 228.476 438
vn -4.93257e-15 1 9.4739e-15
vt 240 438
v 11.5241 128.375 -138
vt 240 444
vt 228.476 444
f 288/199/61 274/200/61 308/201/61 306/202/61 

vt 438 108.625
vn 1 2.70794e-17 -0
v 11.5241 112.625 -138
vt 444 108.625
vt 444 124.375
vt 438 124.375
f 305/203/62 309/204/62 308/205/62 274/206/62 

v 155.524 112.625 -138
vt 384 444
vt 384 438
f 310/207/1 309/201/1 305/200/1 304/208/1 

v 25.5241 4 -138
vt -254 0
vt -228.476 2.84217e-14
vt -228.476 124.375
vt -240 124.375
vt -240 108.625
vt -384 108.625
vt -384 0
vt -286 0
v 57.5241 84 -138
vt -286 80
v 25.5241 84 -138
vt -254 80
f 311/209/7 307/210/7 306/211/7 308/212/7 309/213/7 310/214/7 300/215/7 299/216/7 312/217/7 313/218/7 

vt -228.476 438
vn -5.56762e-16 -1 -2.36848e-15
vt -228.476 444
vt -254 444
vt -254 438
f 289/219/63 307/220/63 311/221/63 301/222/63 

vt 444 0
vt 444 80
vt 438 80
vt 438 0
f 311/223/8 313/224/8 302/225/8 301/226/8 

f 313/221/6 312/183/6 303/182/6 302/222/6 

vt -444 80
vt -444 0
vt -438 80
f 312/227/10 299/228/10 298/195/10 303/229/10 

f 297/226/8 300/223/8 310/204/8 304/203/8 

g Mesh42 MainLevelExteriorWalls1 Group4 Model

v 155.524 19.75 -102
vt 2.36848e-12 8.65701e-13
vn 1.18424e-14 4.1864e-15 1
v 275.524 19.75 -102
vt 120 8.62148e-13
v 275.524 128.375 -102
vt 120 108.625
v 155.524 128.375 -102
vt 2.36848e-12 108.625
f 314/230/64 315/231/64 316/232/64 317/233/64 

v 155.524 19.75 -138
vt -1.92833e-30 236
vn 6.78471e-17 -1 9.83381e-17
v 161.524 19.75 -138
vt -6 236
v 161.524 19.75 -108
vt -6 206
v 275.524 19.75 -108
vt -120 206
vt -120 200
vt -1.92833e-30 200
f 318/234/65 319/235/65 320/236/65 321/237/65 315/238/65 314/239/65 

v 161.524 128.375 -138
vt -6 108.625
vt -6 0
vt 0 2.84217e-14
v 155.524 128.375 -138
vt 0 108.625
f 322/240/7 319/241/7 318/242/7 323/243/7 

vt 236 0
vt 236 108.625
v 161.524 128.375 -108
vt 206 108.625
vt 206 0
f 319/244/8 322/245/8 324/246/8 320/247/8 

vt 120 200
vn 3.33484e-17 1 -1.71888e-16
v 275.524 128.375 -108
vt 120 206
vt 6 206
vt 6 236
vt -3.62247e-15 236
vt -3.62247e-15 200
f 316/248/66 325/249/66 324/250/66 322/251/66 323/252/66 317/253/66 

vt 200 2.4869e-14
vt 206 2.4869e-14
vt 200 108.625
f 315/254/8 321/255/8 325/246/8 316/256/8 

vt -120 2.4869e-14
vt -120 108.625
f 321/257/7 320/241/7 324/240/7 325/258/7 

vt -200 108.625
vt -236 108.625
vt -236 2.84217e-14
vt -200 2.84217e-14
f 317/259/10 323/260/10 318/261/10 314/262/10 

